<?xml version="1.0" standalone="no"?>
<!DOCTYPE svg PUBLIC "-//W3C//DTD SVG 20010904//EN"
 "http://www.w3.org/TR/2001/REC-SVG-20010904/DTD/svg10.dtd">
<svg version="1.0" xmlns="http://www.w3.org/2000/svg"
 width="500.000000pt" height="500.000000pt" viewBox="0 0 500.000000 500.000000"
 preserveAspectRatio="xMidYMid meet">

<g transform="translate(0.000000,500.000000) scale(0.100000,-0.100000)"
fill="#000000" stroke="none">
<path d="M0 2500 l0 -2500 2500 0 2500 0 0 2500 0 2500 -2500 0 -2500 0 0
-2500z m2781 1461 c266 -54 520 -185 701 -363 l83 -80 -80 71 c-197 177 -456
307 -710 358 -68 13 -138 18 -285 18 -186 0 -199 -2 -275 -27 -189 -64 -361
-173 -511 -322 -158 -158 -242 -308 -300 -538 -22 -86 -27 -134 -31 -288 -6
-205 8 -344 52 -525 59 -240 159 -347 433 -464 30 -12 52 -24 50 -26 -7 -7
-98 24 -132 44 -17 10 -62 29 -101 41 -38 13 -73 27 -76 33 -4 5 -12 6 -19 2
-9 -5 -11 -4 -6 3 4 7 1 13 -6 13 -7 1 -22 3 -34 4 -27 3 -104 46 -104 57 0 5
4 17 10 27 8 15 5 18 -13 17 -12 0 -21 4 -20 10 1 6 -8 11 -20 10 -12 0 -21 4
-20 10 1 6 -6 11 -15 11 -32 0 -42 3 -42 12 0 6 9 8 20 6 11 -2 23 1 26 7 5 7
2 8 -6 3 -10 -6 -11 -2 -7 17 6 22 3 25 -18 24 -13 -1 -28 -6 -32 -10 -4 -5
-2 -6 5 -2 18 10 14 -21 -8 -69 -20 -44 -26 -43 -9 1 5 16 7 40 3 54 l-7 25
-13 -30 c-16 -37 -19 -68 -4 -45 13 20 12 10 -1 -29 -7 -21 -14 -29 -19 -21
-4 6 -7 -7 -7 -30 0 -27 3 -37 8 -28 7 10 9 10 9 -2 1 -9 6 -5 15 10 8 14 14
21 14 15 0 -5 -6 -21 -14 -35 -17 -30 -21 -65 -5 -40 9 13 10 13 10 0 1 -8 12
5 25 30 13 25 24 38 25 30 0 -10 5 -6 14 9 12 21 14 21 20 6 3 -10 4 -20 1
-23 -3 -3 -5 1 -5 9 -1 8 -7 3 -15 -11 -9 -15 -15 -19 -15 -10 0 8 -9 -1 -20
-20 -21 -39 -25 -54 -10 -45 6 4 7 -1 3 -11 -4 -12 -3 -15 5 -10 8 5 10 1 5
-10 -4 -12 -3 -15 5 -10 8 5 10 1 5 -10 -4 -12 -3 -15 5 -10 8 5 10 1 5 -10
-4 -12 -3 -15 5 -10 8 5 10 1 5 -10 -5 -13 -3 -15 8 -9 11 6 12 5 2 -6 -22
-23 -12 -31 25 -20 1 1 4 0 5 -1 2 -2 12 4 23 12 17 14 18 14 6 -2 -8 -10 -19
-16 -24 -15 -6 1 -12 -3 -15 -10 -5 -15 20 -11 41 6 9 7 16 10 16 6 0 -4 6 -2
14 4 11 9 16 9 22 -1 4 -7 4 -10 -1 -6 -4 4 -14 3 -22 -3 -7 -6 -13 -8 -13 -4
0 5 -8 1 -17 -8 -10 -8 -22 -16 -28 -16 -5 0 -11 -4 -13 -9 -2 -8 14 -9 36 -3
1 1 4 0 5 -1 2 -2 11 3 20 11 10 7 17 10 17 6 0 -4 8 -1 18 6 15 13 16 12 3
-4 -8 -9 -16 -15 -19 -12 -3 3 -11 0 -19 -6 -7 -6 -13 -8 -13 -4 0 4 -7 2 -15
-5 -8 -7 -15 -16 -15 -20 0 -12 25 -6 44 9 9 7 16 10 16 6 0 -5 9 0 19 9 15
14 21 15 27 4 4 -7 3 -10 -1 -5 -5 4 -19 -3 -33 -15 -13 -13 -26 -21 -29 -18
-3 3 -7 -5 -9 -17 -5 -29 18 -24 55 11 24 23 29 25 27 10 -2 -11 -7 -18 -12
-17 -17 3 -41 -27 -40 -50 1 -15 7 -22 21 -22 29 0 44 -12 40 -33 -1 -9 6 -26
16 -37 10 -11 18 -24 18 -30 1 -5 6 -11 11 -11 6 -1 12 -3 15 -4 3 -1 10 -3
17 -4 13 -1 20 -54 8 -61 -4 -3 -15 4 -25 15 -10 11 -14 20 -9 20 4 0 -20 29
-56 65 -38 38 -68 61 -74 57 -23 -17 -43 -4 -91 60 -201 268 -295 553 -295
898 0 266 44 451 162 685 40 78 134 225 144 225 3 0 2 -4 -1 -10 -10 -16 1
-11 16 7 10 11 10 14 2 9 -20 -11 -15 9 5 27 10 10 22 14 27 10 4 -5 5 -2 0 6
-5 9 20 40 81 100 234 230 495 363 819 417 110 18 361 11 486 -15z m-322 -203
c1 -48 -19 -50 -48 -5 l-22 32 3 -34 c4 -47 -18 -51 -26 -4 -14 89 4 111 43
51 l21 -33 0 31 c0 73 27 38 29 -38z m241 57 c0 -8 -6 -15 -14 -15 -10 0 -17
-16 -22 -45 -9 -60 -29 -53 -25 8 2 37 -1 47 -13 47 -9 0 -16 5 -16 10 0 6 20
10 45 10 33 0 45 -4 45 -15z m205 -35 c29 -11 24 -34 -6 -25 -22 7 -26 -13 -4
-21 22 -9 18 -24 -6 -24 -12 0 -23 -8 -26 -20 -6 -21 -18 -26 -27 -12 -7 11
25 112 35 112 4 0 20 -4 34 -10z m-706 -26 c21 -26 19 -46 -7 -76 -31 -36 -92
-9 -92 40 0 59 63 82 99 36z m945 -85 c30 -23 33 -45 10 -77 -18 -26 -60 -29
-86 -5 -37 34 -12 95 43 102 4 1 18 -8 33 -20z m-1199 -5 c9 -9 13 -24 10 -34
-4 -13 0 -20 15 -25 28 -9 14 -28 -16 -21 -18 5 -22 3 -18 -8 3 -8 1 -17 -4
-20 -10 -6 -62 72 -62 92 0 8 35 30 52 31 4 1 14 -6 23 -15z m-210 -124 c3 -6
-1 -13 -9 -16 -26 -10 -18 -27 9 -20 25 6 35 -7 15 -19 -7 -4 -7 -13 0 -26 21
-38 -1 -38 -35 0 -40 44 -41 48 -18 73 18 20 29 23 38 8z m1631 -33 c6 -20
-12 -47 -31 -47 -7 0 -16 -11 -19 -25 -8 -32 -26 -23 -26 13 0 21 -2 24 -10
12 -6 -10 -12 -12 -20 -4 -7 7 1 23 25 52 32 37 38 40 56 29 10 -6 22 -20 25
-30z m115 -172 c-53 -46 -29 -79 26 -35 29 23 43 25 43 8 0 -15 -60 -58 -80
-58 -20 0 -50 30 -50 51 0 23 71 82 84 69 5 -5 -3 -19 -23 -35z m335 -176 c19
-39 53 -124 74 -188 189 -569 28 -1159 -435 -1591 -111 -104 -283 -219 -306
-204 -7 4 -9 3 -6 -3 4 -6 -28 -26 -77 -47 -89 -38 -128 -48 -61 -15 22 11 31
17 20 14 -201 -60 -351 -89 -425 -82 l-45 4 50 1 c123 5 395 68 359 84 -14 6
-12 7 8 3 14 -3 37 0 50 5 21 10 21 10 -7 6 l-30 -5 30 14 c17 7 41 11 55 8
17 -3 21 -2 12 5 -11 7 -11 10 2 15 9 4 24 4 34 1 15 -5 15 -4 2 6 -13 10 -11
11 8 7 14 -3 20 -1 15 6 -4 7 0 8 11 4 11 -5 15 -3 10 5 -5 8 -2 9 10 5 11 -5
15 -3 10 5 -5 8 -2 9 10 5 10 -4 15 -3 11 3 -3 6 -2 10 2 10 5 0 17 6 28 13
14 11 15 16 5 22 -9 6 -11 4 -5 -5 6 -10 4 -12 -9 -7 -10 4 -15 3 -11 -3 10
-15 -9 -12 -31 6 -17 14 -17 15 -1 10 12 -4 16 -2 11 6 -5 8 -2 9 10 5 9 -4
15 -3 12 2 -7 11 22 23 37 15 7 -3 1 3 -12 14 -21 17 -27 18 -39 6 -7 -8 -19
-14 -25 -14 -8 0 -7 -4 2 -9 14 -9 -3 -11 -99 -12 -29 -1 -32 -2 -15 -10 15
-7 11 -7 -15 -3 -26 4 -31 2 -20 -5 8 -6 43 -8 77 -6 37 2 65 -1 69 -7 4 -6
-2 -8 -17 -3 -16 4 -20 3 -11 -3 10 -7 6 -9 -15 -8 -15 0 -39 -3 -53 -7 -19
-6 -21 -6 -10 2 24 17 1 13 -121 -19 -63 -16 -123 -30 -134 -29 -11 0 12 9 50
18 l70 18 -40 7 c-22 5 -53 11 -70 15 l-30 8 40 8 40 8 -35 12 c-43 17 -63 18
-55 5 3 -5 -1 -10 -9 -10 -16 0 -23 19 -8 21 35 5 169 3 155 -2 -16 -7 -16 -8
2 -7 11 0 31 4 45 8 21 7 22 8 5 10 -11 1 7 10 40 21 69 21 97 24 45 4 -42
-16 -16 -20 29 -4 25 9 30 14 19 21 -9 7 -4 8 15 3 20 -4 27 -2 22 6 -5 8 -1
9 15 4 16 -5 20 -4 15 5 -5 9 -1 10 16 6 19 -6 20 -5 8 3 -10 7 -28 7 -48 1
-17 -5 -31 -7 -31 -4 0 6 43 22 78 30 22 5 24 3 12 -6 -12 -10 -12 -11 5 -5
11 4 28 10 38 12 9 3 17 9 17 13 0 5 9 12 21 15 11 4 18 9 16 12 -3 2 -14 0
-24 -5 -28 -14 -91 -24 -73 -11 16 11 20 12 -69 -11 -68 -18 -61 -3 8 16 60
17 61 18 39 32 -15 8 -16 11 -5 8 11 -4 30 -9 44 -12 18 -5 21 -9 11 -15 -7
-5 -8 -9 -3 -9 6 0 16 4 23 9 10 6 3 13 -25 25 l-38 16 35 -5 c27 -5 32 -4 20
5 -12 9 -11 10 8 5 12 -3 22 -2 22 3 0 5 6 10 13 9 31 -1 47 4 47 14 0 11 -25
8 -64 -7 -9 -3 -16 -2 -16 3 0 4 29 17 65 27 36 10 62 22 60 26 -3 5 1 11 7
14 7 3 -5 3 -27 1 l-40 -5 35 14 c52 20 109 30 90 16 -12 -9 -10 -10 10 -4 37
10 61 26 29 18 -15 -3 -30 -1 -33 5 -4 6 8 13 33 17 48 8 101 38 101 59 0 8 4
15 10 15 21 0 133 86 161 124 89 120 167 350 188 553 24 236 -35 545 -145 766
-19 37 -32 67 -29 67 2 0 21 -32 41 -71z m-704 51 c76 -22 104 -111 52 -164
-15 -14 -31 -26 -37 -26 -5 0 5 -10 24 -23 18 -12 40 -34 47 -47 18 -34 9
-102 -18 -139 -42 -60 -153 -95 -230 -73 l-35 10 43 7 c85 15 147 78 147 150
0 52 -22 79 -81 100 -26 10 -32 14 -17 15 12 0 35 12 52 26 26 21 31 33 31 69
0 34 -5 47 -22 59 -51 36 -118 5 -118 -54 0 -43 -14 -37 -27 13 -13 47 -9 52
57 74 45 15 85 16 132 3z m548 -84 c0 -7 -10 -21 -21 -32 l-21 -19 38 -5 c20
-3 39 -9 40 -15 5 -16 -89 -76 -100 -65 -5 5 -8 11 -5 13 2 2 16 13 32 24 l27
21 -40 -5 c-49 -7 -55 14 -14 46 30 24 30 24 -13 12 -21 -6 -35 -6 -39 0 -9
15 -2 19 53 33 51 14 63 12 63 -8z m-860 -121 c58 -59 62 -65 39 -65 -16 0
-40 15 -69 45 -24 25 -49 45 -55 45 -6 0 -33 -20 -62 -45 -30 -26 -61 -45 -75
-45 -20 1 -13 10 45 65 42 41 76 65 90 65 15 0 45 -23 87 -65z m-371 -57 c-1
-81 -1 -82 -12 -43 -18 59 -58 76 -167 73 l-85 -3 -3 -137 -3 -138 153 0 c171
0 190 6 207 63 7 24 9 4 10 -83 0 -102 -2 -111 -12 -80 -19 54 -42 60 -207 57
l-145 -2 0 -126 c0 -110 3 -130 19 -147 10 -12 28 -23 40 -25 11 -2 -46 -5
-129 -5 -134 -1 -147 0 -119 12 17 8 34 21 38 31 3 9 6 142 6 296 0 266 -1
280 -20 299 -11 11 -28 21 -37 22 -10 1 83 5 207 8 124 3 233 7 243 8 15 2 17
-8 16 -80z m1331 -90 c0 -7 3 -23 6 -35 4 -15 2 -23 -6 -23 -6 0 -14 9 -17 20
-7 28 -23 25 -23 -5 0 -28 -17 -34 -22 -8 -2 11 -12 18 -27 18 -44 0 -33 22
16 33 67 14 73 14 73 0z m12 -235 c49 -44 -13 -132 -68 -95 -18 12 -35 52 -28
65 28 48 63 60 96 30z m-26 -278 c27 -27 26 -59 -4 -82 -27 -22 -34 -14 -16
16 15 25 15 32 5 45 -30 36 -67 9 -55 -40 7 -26 -10 -34 -20 -8 -12 31 -6 63
16 78 31 22 45 20 74 -9z m-2419 -257 c-3 -7 -5 -2 -5 12 0 14 2 19 5 13 2 -7
2 -19 0 -25z m2329 16 c27 -10 41 -21 38 -29 -5 -11 -12 -11 -41 1 -68 29 -87
-3 -22 -37 52 -26 40 -47 -14 -24 -52 22 -65 54 -34 93 12 16 23 15 73 -4z
m-2379 -26 c-3 -8 -6 -5 -6 6 -1 11 2 17 5 13 3 -3 4 -12 1 -19z m106 -51 c4
3 7 -1 7 -11 0 -9 5 -14 10 -11 6 3 10 0 10 -7 0 -9 3 -9 10 2 11 17 13 10 4
-14 -5 -14 -8 -14 -21 -1 -8 9 -19 12 -25 9 -6 -4 -8 -3 -5 3 3 5 -3 16 -14
23 -10 8 -19 19 -19 24 0 5 8 2 18 -7 10 -10 22 -14 25 -10z m-92 -34 c-12
-20 -14 -14 -5 12 4 9 9 14 11 11 3 -2 0 -13 -6 -23z m40 -10 c-12 -20 -14
-14 -5 12 4 9 9 14 11 11 3 -2 0 -13 -6 -23z m-70 -10 c-12 -20 -14 -14 -5 12
4 9 9 14 11 11 3 -2 0 -13 -6 -23z m40 -10 c-12 -20 -14 -14 -5 12 4 9 9 14
11 11 3 -2 0 -13 -6 -23z m55 -72 c-19 -35 -20 -45 -5 -35 8 4 8 0 0 -15 -14
-25 -23 -28 -14 -4 5 11 3 14 -6 8 -10 -6 -11 -3 -2 13 14 26 14 35 1 27 -6
-3 -7 1 -3 10 4 12 8 13 13 5 5 -9 10 -6 15 9 4 13 9 20 12 18 2 -3 -3 -19
-11 -36z m2149 9 c3 -6 -5 -14 -19 -20 -14 -5 -26 -14 -26 -20 0 -15 17 -12
45 6 46 30 76 -24 35 -61 -11 -10 -26 -15 -35 -11 -19 7 -11 26 11 26 8 0 14
7 14 15 0 12 -4 12 -28 -2 -35 -20 -62 -12 -62 18 0 40 48 76 65 49z m-2115
-30 c-6 -11 -13 -20 -16 -20 -2 0 0 9 6 20 6 11 13 20 16 20 2 0 0 -9 -6 -20z
m3 -37 c-5 -12 -3 -14 8 -8 8 5 11 4 6 0 -4 -5 -14 -10 -22 -11 -12 -2 -12 2
-5 17 13 23 22 25 13 2z m2 -62 c-9 -8 -36 -10 -30 -2 2 4 11 8 20 8 8 0 13
-3 10 -6z m128 -153 c-4 -7 -8 -16 -9 -20 -1 -5 -2 -11 -3 -14 0 -3 -6 -2 -12
1 -7 5 -4 14 7 26 19 22 29 25 17 7z m42 -66 c-3 -3 5 -17 17 -31 19 -21 17
-20 -10 3 -37 35 -36 33 -17 33 8 0 13 -3 10 -5z m1605 -2 c-8 -5 -19 -10 -25
-10 -5 0 -3 5 5 10 8 5 20 10 25 10 6 0 3 -5 -5 -10z m-45 -10 c3 -5 0 -8 -7
-5 -7 3 -20 0 -28 -5 -13 -9 -13 -12 3 -24 15 -11 15 -15 3 -19 -8 -3 -20 1
-26 8 -7 8 -16 12 -21 9 -15 -9 -10 -42 9 -54 15 -10 15 -11 -3 -4 -11 3 -28
6 -38 6 -9 0 -15 3 -12 9 4 5 3 9 -2 9 -4 0 -18 -18 -31 -40 -12 -22 -28 -40
-34 -40 -7 0 -6 5 2 15 8 9 9 15 2 15 -6 0 -14 -5 -17 -11 -4 -5 -12 -8 -18
-6 -13 4 -93 -63 -90 -75 2 -4 -23 -6 -54 -6 -35 1 -58 -2 -60 -9 -3 -7 -12
-9 -21 -6 -15 4 -15 3 -2 -6 8 -6 25 -11 36 -11 12 0 35 -7 50 -15 26 -13 26
-15 7 -15 -12 0 -23 5 -25 10 -2 6 -24 11 -50 12 -26 0 -45 4 -42 9 3 5 0 9
-6 9 -7 0 -9 -8 -5 -20 4 -11 2 -20 -4 -20 -6 0 -11 5 -11 11 0 6 -7 8 -16 5
-8 -3 -12 -2 -9 4 3 6 1 10 -4 10 -6 0 -11 -4 -11 -9 0 -5 -8 -12 -17 -14 -13
-3 -10 -5 7 -6 14 -1 36 -8 50 -16 14 -8 41 -14 60 -13 l35 1 -35 7 -35 7 31
2 c18 0 45 -6 60 -14 l29 -15 -25 -2 c-14 -1 -45 -1 -70 0 -40 1 -42 0 -15 -7
l30 -9 -30 -1 c-38 -1 -63 13 -44 24 15 10 -12 24 -46 24 -17 0 -17 -2 4 -10
41 -16 14 -22 -31 -6 -24 8 -52 18 -63 22 l-20 7 20 -17 c20 -17 20 -17 -3
-10 -13 4 -29 2 -35 -4 -8 -6 -18 -6 -27 -1 -8 6 -67 10 -130 10 -63 0 -121 4
-129 9 -23 15 1 18 69 11 36 -4 90 -4 120 0 30 4 58 6 62 3 4 -2 33 3 64 11
32 8 61 13 65 10 4 -2 10 0 13 5 3 4 24 11 47 15 36 6 129 41 129 49 0 11 -40
3 -44 -9 -8 -20 -26 -17 -20 4 5 16 5 16 -6 0 -12 -20 -36 -25 -23 -5 4 6 -6
4 -21 -7 -16 -10 -25 -13 -22 -7 4 6 2 11 -4 11 -6 0 -13 -7 -16 -15 -4 -8
-11 -15 -16 -15 -6 0 -5 6 2 15 9 11 9 15 1 15 -6 0 -14 -6 -17 -14 -3 -8 -13
-17 -22 -21 -14 -5 -15 -4 -4 6 6 7 12 18 12 23 0 6 -5 5 -12 -2 -17 -17 -29
-15 -22 3 4 10 20 15 50 15 104 0 344 78 489 160 77 43 81 44 90 30z m150 0
c-11 -5 -27 -9 -35 -9 -9 0 -8 4 5 9 11 5 27 9 35 9 9 0 8 -4 -5 -9z m-58 -16
c-3 -3 -12 -4 -19 -1 -8 3 -5 6 6 6 11 1 17 -2 13 -5z m-1775 -19 c9 2 29 -10
44 -26 15 -16 24 -29 20 -29 -5 0 -3 -7 4 -15 7 -8 9 -15 5 -15 -5 0 0 -9 10
-20 10 -11 16 -20 14 -20 -3 0 -36 32 -74 72 -39 39 -63 67 -55 61 8 -6 22 -9
32 -8z m1735 -51 c-3 -3 -12 -4 -19 -1 -8 3 -5 6 6 6 11 1 17 -2 13 -5z m-101
-30 c-38 -13 -72 -22 -74 -19 -3 3 1 5 8 5 9 0 7 5 -5 14 -17 12 -15 13 23 10
23 -2 52 1 64 6 13 5 30 9 38 9 8 0 -16 -11 -54 -25z m-1417 -33 c2 -1 -3 -9
-12 -19 -10 -10 -15 -22 -12 -25 3 -4 2 -5 -2 -2 -4 3 -8 16 -9 29 0 17 4 23
15 21 9 -2 18 -4 20 -4z m1266 -11 c3 -5 0 -7 -8 -4 -8 3 -18 1 -22 -5 -3 -6
-13 -11 -21 -11 -12 0 -13 3 -2 15 15 17 44 20 53 5z m61 -22 c-32 -11 -61
-17 -64 -14 -3 4 2 6 11 6 10 0 16 3 16 8 -3 15 2 17 49 18 l47 1 -59 -19z
m-682 3 c3 -5 -1 -11 -9 -14 -9 -4 -12 -1 -8 9 6 16 10 17 17 5z m46 -5 c0 -2
-7 -6 -15 -10 -8 -3 -15 -1 -15 4 0 6 7 10 15 10 8 0 15 -2 15 -4z m680 -6
c-8 -5 -19 -10 -25 -10 -5 0 -3 5 5 10 8 5 20 10 25 10 6 0 3 -5 -5 -10z
m-580 -9 c0 -5 -7 -12 -16 -15 -9 -4 -13 -2 -8 5 4 8 -1 9 -15 4 -12 -4 -21
-2 -21 4 0 6 14 11 30 11 17 0 30 -4 30 -9z m445 -1 c18 -8 18 -9 -5 -10 -23
-1 -23 -2 -5 -10 15 -6 11 -7 -17 -7 -23 1 -33 4 -25 9 6 4 8 8 2 8 -5 0 -3 5
5 10 17 11 19 11 45 0z m-415 -4 c0 -2 -7 -9 -15 -16 -13 -11 -14 -10 -9 4 5
14 24 23 24 12z m467 -12 c-3 -3 -12 -4 -19 -1 -8 3 -5 6 6 6 11 1 17 -2 13
-5z m273 -14 c-8 -5 -19 -10 -25 -10 -5 0 -3 5 5 10 8 5 20 10 25 10 6 0 3 -5
-5 -10z m-483 -6 c-3 -3 -12 -4 -19 -1 -8 3 -5 6 6 6 11 1 17 -2 13 -5z m96
-31 c-7 -2 -19 -2 -25 0 -7 3 -2 5 12 5 14 0 19 -2 13 -5z m-88 -13 c3 -5 16
-11 28 -11 19 -1 19 -2 3 -6 -10 -3 -28 0 -40 5 -11 6 -28 13 -36 15 -8 3 -3
6 12 6 15 1 30 -3 33 -9z m410 -35 c-32 -15 -59 -22 -74 -18 -22 6 -22 6 9 20
18 7 40 11 49 8 9 -2 23 0 31 5 8 5 20 9 25 9 6 0 -13 -11 -40 -24z m-328 9
c-3 -3 -12 -4 -19 -1 -8 3 -5 6 6 6 11 1 17 -2 13 -5z m-504 -11 c-13 -2 -33
-2 -45 0 -13 2 -3 4 22 4 25 0 35 -2 23 -4z m554 1 c-3 -3 -12 -4 -19 -1 -8 3
-5 6 6 6 11 1 17 -2 13 -5z m-317 -14 c0 -5 -8 -10 -17 -10 -15 0 -16 2 -3 10
19 12 20 12 20 0z m267 4 c-3 -3 -12 -4 -19 -1 -8 3 -5 6 6 6 11 1 17 -2 13
-5z m158 -9 c-22 -8 -49 -13 -60 -13 -11 0 0 6 25 13 59 17 87 17 35 0z m-212
-2 c-7 -2 -19 -2 -25 0 -7 3 -2 5 12 5 14 0 19 -2 13 -5z m-335 -10 c-10 -2
-26 -2 -35 0 -10 3 -2 5 17 5 19 0 27 -2 18 -5z m187 -3 c8 -13 -5 -13 -25 0
-13 8 -13 10 2 10 9 0 20 -4 23 -10z m145 -1 c17 -1 12 -4 -15 -9 -22 -5 -53
-5 -70 -2 l-30 6 25 7 c14 4 34 6 45 3 11 -2 31 -4 45 -5z m310 7 c0 -6 -121
-46 -134 -45 -6 0 18 11 54 24 68 25 80 28 80 21z m-183 -12 c-3 -3 -12 -4
-19 -1 -8 3 -5 6 6 6 11 1 17 -2 13 -5z m78 -3 c-11 -5 -36 -11 -55 -14 -35
-6 -34 -6 5 8 43 14 84 19 50 6z m-122 -8 c-7 -2 -19 -2 -25 0 -7 3 -2 5 12 5
14 0 19 -2 13 -5z m-376 -9 c-3 -3 -12 -4 -19 -1 -8 3 -5 6 6 6 11 1 17 -2 13
-5z m190 0 c-3 -3 -12 -4 -19 -1 -8 3 -5 6 6 6 11 1 17 -2 13 -5z m136 -1 c-7
-2 -19 -2 -25 0 -7 3 -2 5 12 5 14 0 19 -2 13 -5z m-215 -10 c-10 -2 -26 -2
-35 0 -10 3 -2 5 17 5 19 0 27 -2 18 -5z m155 0 c-7 -2 -19 -2 -25 0 -7 3 -2
5 12 5 14 0 19 -2 13 -5z m130 0 c-7 -2 -19 -2 -25 0 -7 3 -2 5 12 5 14 0 19
-2 13 -5z m-190 -10 c-7 -2 -21 -2 -30 0 -10 3 -4 5 12 5 17 0 24 -2 18 -5z
m140 0 c-7 -2 -21 -2 -30 0 -10 3 -4 5 12 5 17 0 24 -2 18 -5z m104 1 c-3 -3
-12 -4 -19 -1 -8 3 -5 6 6 6 11 1 17 -2 13 -5z m-614 -11 c-7 -2 -21 -2 -30 0
-10 3 -4 5 12 5 17 0 24 -2 18 -5z m280 0 c-13 -2 -33 -2 -45 0 -13 2 -3 4 22
4 25 0 35 -2 23 -4z m170 0 c-7 -2 -21 -2 -30 0 -10 3 -4 5 12 5 17 0 24 -2
18 -5z m124 1 c-3 -3 -12 -4 -19 -1 -8 3 -5 6 6 6 11 1 17 -2 13 -5z m-189
-11 c-10 -2 -26 -2 -35 0 -10 3 -2 5 17 5 19 0 27 -2 18 -5z m145 0 c-7 -2
-19 -2 -25 0 -7 3 -2 5 12 5 14 0 19 -2 13 -5z m62 -8 c-22 -8 -49 -13 -60
-13 -11 0 0 6 25 13 59 17 87 17 35 0z m-568 -1 c-3 -3 -12 -4 -19 -1 -8 3 -5
6 6 6 11 1 17 -2 13 -5z m281 -1 c-10 -2 -28 -2 -40 0 -13 2 -5 4 17 4 22 1
32 -1 23 -4z m165 0 c-7 -2 -19 -2 -25 0 -7 3 -2 5 12 5 14 0 19 -2 13 -5z
m-536 -9 c-3 -3 -12 -4 -19 -1 -8 3 -5 6 6 6 11 1 17 -2 13 -5z m236 -1 c-7
-2 -21 -2 -30 0 -10 3 -4 5 12 5 17 0 24 -2 18 -5z m250 0 c-7 -2 -21 -2 -30
0 -10 3 -4 5 12 5 17 0 24 -2 18 -5z m-410 -10 c-7 -2 -19 -2 -25 0 -7 3 -2 5
12 5 14 0 19 -2 13 -5z m325 0 c-10 -2 -26 -2 -35 0 -10 3 -2 5 17 5 19 0 27
-2 18 -5z m165 0 c-7 -2 -19 -2 -25 0 -7 3 -2 5 12 5 14 0 19 -2 13 -5z m-566
-9 c-3 -3 -12 -4 -19 -1 -8 3 -5 6 6 6 11 1 17 -2 13 -5z m226 -1 c-13 -2 -35
-2 -50 0 -16 2 -5 4 22 4 28 0 40 -2 28 -4z m280 0 c-7 -2 -19 -2 -25 0 -7 3
-2 5 12 5 14 0 19 -2 13 -5z m-430 -10 c-7 -2 -19 -2 -25 0 -7 3 -2 5 12 5 14
0 19 -2 13 -5z m355 0 c-10 -2 -26 -2 -35 0 -10 3 -2 5 17 5 19 0 27 -2 18 -5z
m237 -3 c-11 -5 -27 -9 -35 -9 -9 0 -8 4 5 9 11 5 27 9 35 9 9 0 8 -4 -5 -9z
m-367 -7 c-32 -2 -84 -2 -115 0 -32 2 -6 3 57 3 63 0 89 -1 58 -3z m309 -9
c-3 -3 -12 -4 -19 -1 -8 3 -5 6 6 6 11 1 17 -2 13 -5z m-464 -11 c-7 -2 -21
-2 -30 0 -10 3 -4 5 12 5 17 0 24 -2 18 -5z m420 0 c-7 -2 -19 -2 -25 0 -7 3
-2 5 12 5 14 0 19 -2 13 -5z m-546 -9 c-3 -3 -12 -4 -19 -1 -8 3 -5 6 6 6 11
1 17 -2 13 -5z m496 -1 c-7 -2 -19 -2 -25 0 -7 3 -2 5 12 5 14 0 19 -2 13 -5z
m-426 -9 c-3 -3 -12 -4 -19 -1 -8 3 -5 6 6 6 11 1 17 -2 13 -5z m361 -1 c-10
-2 -26 -2 -35 0 -10 3 -2 5 17 5 19 0 27 -2 18 -5z m-125 -10 c-29 -2 -78 -2
-110 0 -32 2 -8 3 52 3 61 0 87 -1 58 -3z"/>
<path d="M1285 3311 c-103 -159 -188 -377 -220 -565 -16 -92 -20 -362 -6 -446
3 -25 6 47 5 160 l-2 205 8 -185 c4 -102 10 -207 13 -235 5 -36 4 -42 -2 -20
-8 27 -9 28 -9 5 0 -14 4 -36 8 -50 l8 -25 2 25 2 25 8 -25 8 -25 2 25 c1 15
8 -2 17 -40 15 -60 17 -63 25 -38 6 18 4 51 -6 102 -9 41 -17 90 -18 108 -1
28 -2 27 -7 -12 -6 -42 -7 -39 -15 40 -4 47 -6 139 -4 205 l4 120 4 -160 3
-160 7 180 c5 130 14 209 31 285 12 58 23 120 23 138 0 22 2 28 9 20 5 -8 6
-2 3 17 -5 23 -4 27 5 15 8 -12 9 -8 5 15 -5 22 -4 26 4 15 8 -13 10 -13 10 1
0 8 -7 24 -16 35 -14 17 -15 17 -10 1 4 -12 2 -16 -5 -11 -8 4 -9 -1 -5 -17 6
-20 5 -21 -4 -7 -8 14 -6 28 8 60 14 34 20 39 25 25 4 -11 3 -16 -3 -12 -13 8
-12 -5 4 -33 12 -23 13 -23 29 18 9 23 13 48 10 57 -4 11 -2 14 5 9 8 -5 10
-1 5 10 -4 12 -3 15 5 10 8 -5 10 -1 5 10 -4 12 -3 15 5 10 8 -5 10 -1 5 10
-4 12 -3 15 5 10 8 -5 10 -1 5 10 -4 12 -3 15 5 10 8 -5 10 -1 5 10 -4 12 -3
15 6 10 6 -4 11 -4 10 1 -3 20 2 34 11 28 6 -4 7 1 3 11 -4 12 -3 15 6 10 6
-4 11 -4 10 1 -3 19 2 34 9 29 5 -3 9 1 9 9 0 23 -5 19 -36 -31 -16 -25 -32
-40 -36 -35 -3 6 8 31 25 56 17 25 28 45 25 45 -3 0 -26 -31 -50 -69z m-3 -49
c-7 -2 -10 -8 -6 -13 3 -5 0 -9 -7 -9 -7 0 -10 -3 -6 -6 3 -4 -3 -24 -14 -46
-11 -21 -17 -43 -14 -47 3 -5 2 -17 -1 -26 -6 -14 -8 -13 -21 5 -13 18 -11 27
23 90 22 42 41 67 47 63 8 -5 7 -8 -1 -11z m-112 -267 c0 -5 -5 -3 -11 5 -8
11 -9 8 -5 -15 5 -24 4 -27 -5 -15 -8 12 -10 10 -5 -10 3 -14 8 -36 11 -50 5
-22 4 -22 -4 -5 l-10 20 -1 -20 c-1 -18 -2 -17 -11 4 -12 30 18 132 32 110 5
-8 9 -18 9 -24z m-41 -135 c0 -10 -4 -8 -10 5 -6 14 -8 8 -4 -25 3 -34 2 -39
-4 -20 l-9 25 -1 -24 c-1 -13 -4 -22 -7 -18 -3 3 -1 30 6 59 10 42 15 49 21
33 4 -11 8 -27 8 -35z m18 -2 c-3 -8 -6 -5 -6 6 -1 11 2 17 5 13 3 -3 4 -12 1
-19z m-10 -50 c-3 -7 -5 -2 -5 12 0 14 2 19 5 13 2 -7 2 -19 0 -25z m-53 -82
c-4 -31 -9 -54 -12 -52 -2 3 -1 30 3 61 3 31 9 55 11 52 3 -2 2 -30 -2 -61z
m23 27 c-3 -10 -5 -4 -5 12 0 17 2 24 5 18 2 -7 2 -21 0 -30z m20 0 c-3 -10
-5 -4 -5 12 0 17 2 24 5 18 2 -7 2 -21 0 -30z m-30 -70 c-3 -10 -5 -2 -5 17 0
19 2 27 5 18 2 -10 2 -26 0 -35z m20 0 c-3 -10 -5 -2 -5 17 0 19 2 27 5 18 2
-10 2 -26 0 -35z m-14 -438 c6 -49 6 -49 -4 -10 -5 22 -11 126 -13 230 l-4
190 8 -180 c4 -99 10 -202 13 -230z m30 -40 c4 -34 3 -42 -3 -25 -8 25 -13 87
-6 79 2 -2 6 -26 9 -54z m14 -77 c-3 -8 -6 -5 -6 6 -1 11 2 17 5 13 3 -3 4
-12 1 -19z"/>
<path d="M1216 3137 c3 -10 9 -15 12 -12 3 3 0 11 -7 18 -10 9 -11 8 -5 -6z"/>
<path d="M1131 2934 c0 -11 3 -14 6 -6 3 7 2 16 -1 19 -3 4 -6 -2 -5 -13z"/>
<path d="M1340 3270 c-6 -11 -8 -20 -6 -20 3 0 10 9 16 20 6 11 8 20 6 20 -3
0 -10 -9 -16 -20z"/>
<path d="M1225 3021 c5 -16 4 -21 -4 -17 -13 8 -14 -3 -2 -22 6 -10 10 -7 15
13 4 17 2 32 -5 39 -8 8 -9 5 -4 -13z"/>
<path d="M1200 2975 c0 -5 5 -17 10 -25 5 -8 10 -10 10 -5 0 6 -5 17 -10 25
-5 8 -10 11 -10 5z"/>
<path d="M1190 2940 c0 -8 5 -22 10 -30 9 -13 10 -13 10 0 0 8 -5 22 -10 30
-9 13 -10 13 -10 0z"/>
<path d="M1185 2880 c5 -26 4 -31 -4 -20 -10 13 -11 13 -10 0 0 -8 4 -24 8
-35 7 -16 9 -13 15 18 4 22 3 44 -4 55 -9 13 -10 10 -5 -18z"/>
<path d="M1165 2785 c3 -37 2 -43 -4 -25 -7 21 -9 21 -9 5 -1 -11 3 -38 7 -60
l7 -40 7 61 c5 36 3 70 -3 85 -8 19 -9 14 -5 -26z"/>
<path d="M1281 2785 c1 -11 5 -31 9 -45 8 -24 8 -24 9 5 0 17 -4 37 -9 45 -8
12 -10 11 -9 -5z"/>
<path d="M1145 2550 c2 -170 2 -171 -4 -45 l-7 130 -2 -115 c-2 -128 9 -245
35 -364 l17 -79 12 39 13 39 -5 -40 c-3 -32 -2 -36 6 -20 9 18 10 17 5 -5 -3
-14 -8 -36 -11 -50 -4 -20 -3 -22 5 -10 10 13 11 13 10 0 0 -8 -4 -24 -8 -35
-6 -14 -12 -3 -27 50 l-18 70 -11 -39 -11 -39 -14 59 c-12 49 -15 55 -21 34
l-7 -25 -1 24 c-1 13 -4 21 -7 18 -4 -4 -1 -28 6 -53 11 -39 15 -44 22 -28 6
13 7 8 3 -16 -4 -27 -2 -31 6 -20 8 12 9 8 5 -15 -5 -24 -4 -27 5 -15 9 12 10
10 5 -9 -7 -32 23 -107 36 -89 7 9 8 7 5 -10 -3 -14 -1 -20 6 -15 7 4 8 0 4
-11 -9 -22 20 -79 35 -70 6 4 9 1 6 -7 -7 -19 20 -71 33 -63 6 3 9 -2 7 -12
-2 -12 2 -18 10 -16 7 1 12 -5 10 -15 -2 -11 2 -17 11 -15 8 2 11 -3 8 -11 -3
-7 12 -36 34 -64 35 -47 57 -58 76 -40 4 4 29 -14 57 -40 28 -27 42 -37 31
-24 -11 13 -20 33 -20 45 0 14 -6 21 -20 21 -26 0 -46 14 -43 28 2 7 0 12 -3
12 -3 0 -13 6 -22 13 -12 10 -17 10 -23 1 -5 -8 -3 -9 7 -4 14 9 14 9 -19 -35
-2 -3 -2 4 0 15 2 13 -2 19 -10 17 -8 -1 -11 2 -7 8 3 6 10 8 15 5 4 -3 11 2
14 11 3 9 11 12 18 8 8 -4 10 -3 5 2 -5 5 -14 9 -20 9 -7 0 -11 8 -11 17 1 10
-3 16 -10 15 -6 -1 -12 5 -12 13 -1 8 -2 22 -3 30 -1 12 -3 12 -10 2 -7 -11
-9 -10 -15 3 -3 9 -11 13 -17 9 -7 -4 -10 -1 -7 7 3 8 11 13 17 12 6 -2 -4 26
-21 62 -18 35 -35 60 -38 54 -4 -5 -17 13 -28 42 -24 55 -29 83 -11 59 9 -12
10 -12 5 3 -3 10 -3 30 1 45 6 24 7 25 15 7 7 -16 7 -15 3 6 -3 15 -1 40 4 55
17 53 23 90 11 74 -7 -11 -10 -11 -10 -2 0 7 -5 10 -12 6 -8 -5 -9 2 -5 24 8
42 0 41 -13 0 -10 -32 -10 -32 -5 7 5 31 3 37 -5 25 -9 -11 -10 -3 -6 35 3 33
2 43 -4 30 -7 -17 -9 -16 -10 10 -2 29 -2 29 -9 5 -10 -35 -21 71 -22 219 0
64 -4 136 -8 161 -4 27 -7 -26 -6 -130z m12 -252 c-2 -13 -4 -3 -4 22 0 25 2
35 4 23 2 -13 2 -33 0 -45z m24 -63 c6 21 7 14 4 -25 -3 -39 -2 -48 4 -30 7
20 9 21 9 5 0 -11 -3 -31 -7 -45 -6 -21 -9 -15 -19 34 -7 33 -11 69 -10 80 0
12 3 5 6 -14 l5 -35 8 30z m46 -107 c-3 -8 -6 -5 -6 6 -1 11 2 17 5 13 3 -3 4
-12 1 -19z m17 -22 c-3 -15 -8 -25 -11 -23 -2 3 -1 17 3 31 3 15 8 25 11 23 2
-3 1 -17 -3 -31z m-127 -18 c-3 -8 -6 -5 -6 6 -1 11 2 17 5 13 3 -3 4 -12 1
-19z m76 -140 c-3 -16 -2 -19 5 -10 13 18 23 -7 15 -40 -3 -16 -2 -19 5 -10 7
10 12 6 22 -18 7 -17 16 -27 20 -21 3 6 16 -10 28 -35 17 -35 20 -49 12 -60
-8 -9 -9 -18 -1 -31 8 -14 11 -15 11 -3 0 12 3 11 11 -3 6 -9 15 -14 21 -11 7
4 8 2 4 -5 -4 -6 3 -25 15 -43 13 -17 18 -28 11 -24 -7 4 -15 0 -19 -9 -5 -16
-7 -15 -17 1 -5 11 -10 26 -11 34 0 8 -5 14 -11 13 -7 -1 -11 5 -10 15 0 9 -5
16 -12 14 -8 -1 -11 2 -7 8 3 5 1 18 -4 27 -8 14 -11 15 -11 3 0 -9 -6 -5 -14
10 -8 14 -12 28 -10 32 3 4 0 16 -5 25 -8 14 -11 15 -11 3 0 -8 -7 -3 -16 13
-8 15 -12 31 -10 36 3 5 1 23 -5 41 -8 20 -14 28 -19 20 -10 -17 -26 36 -24
80 2 72 5 75 24 23 10 -29 16 -62 13 -75z m237 -354 c0 -8 -19 -13 -24 -6 -3
5 1 9 9 9 8 0 15 -2 15 -3z m-5 -26 c5 4 5 2 2 -5 -6 -9 -18 -10 -45 -4 -2 1
0 6 3 11 5 8 11 8 19 1 7 -6 17 -7 21 -3z m62 -35 c0 -9 -4 -10 -14 -2 -7 6
-13 12 -13 14 0 1 6 2 13 2 8 0 14 -6 14 -14z"/>
<path d="M1164 2003 c0 -23 4 -36 8 -30 6 9 8 8 8 -2 0 -8 2 -12 5 -9 3 2 -1
22 -9 44 l-13 39 1 -42z"/>
<path d="M1217 1865 c-4 -9 -3 -24 3 -33 8 -14 10 -14 10 -2 0 8 7 3 16 -13 8
-15 12 -33 8 -39 -5 -7 -3 -8 6 -3 10 6 12 4 7 -7 -3 -10 -1 -15 8 -14 26 4
27 14 6 53 -11 21 -21 31 -21 23 0 -8 -9 0 -19 19 -15 27 -19 30 -24 16z m62
-75 c11 -24 11 -24 -3 -6 -9 11 -16 24 -16 30 0 12 5 7 19 -24z"/>
<path d="M1322 1690 c7 -14 13 -29 13 -35 0 -10 15 -20 15 -10 0 3 0 8 0 13 0
4 -10 18 -21 32 l-20 25 13 -25z"/>
<path d="M1213 2675 c0 -27 2 -38 4 -22 2 15 2 37 0 50 -2 12 -4 0 -4 -28z"/>
<path d="M1242 2655 c0 -16 2 -22 5 -12 2 9 2 23 0 30 -3 6 -5 -1 -5 -18z"/>
<path d="M1223 2560 c0 -30 2 -43 4 -27 2 15 2 39 0 55 -2 15 -4 2 -4 -28z"/>
<path d="M1270 2570 c0 -18 4 -29 10 -25 6 3 10 15 10 25 0 10 -4 22 -10 25
-6 4 -10 -7 -10 -25z"/>
<path d="M1181 2554 c0 -11 3 -14 6 -6 3 7 2 16 -1 19 -3 4 -6 -2 -5 -13z"/>
<path d="M1241 2500 c0 -33 1 -34 11 -12 8 17 8 26 0 34 -9 9 -12 4 -11 -22z"/>
<path d="M1301 2514 c0 -11 3 -14 6 -6 3 7 2 16 -1 19 -3 4 -6 -2 -5 -13z"/>
<path d="M1198 2485 c-3 -14 -1 -25 3 -25 5 0 9 11 9 25 0 14 -2 25 -4 25 -2
0 -6 -11 -8 -25z"/>
<path d="M1269 2478 c-3 -21 -1 -36 5 -35 5 1 13 -9 17 -23 l7 -25 1 28 c1 15
-3 27 -8 27 -6 0 -11 15 -13 33 l-3 32 -6 -37z"/>
<path d="M1221 2453 c0 -6 -4 -20 -7 -30 -5 -14 -4 -15 5 -7 7 7 11 20 8 30
-3 11 -5 14 -6 7z"/>
<path d="M1172 2410 c0 -14 2 -19 5 -12 2 6 2 18 0 25 -3 6 -5 1 -5 -13z"/>
<path d="M1237 2411 c-4 -17 -3 -21 5 -13 5 5 8 16 6 23 -3 8 -7 3 -11 -10z"/>
<path d="M1262 2390 c0 -14 2 -19 5 -12 2 6 2 18 0 25 -3 6 -5 1 -5 -13z"/>
<path d="M1310 2394 c0 -8 5 -12 10 -9 6 4 8 11 5 16 -9 14 -15 11 -15 -7z"/>
<path d="M1192 2380 c0 -14 2 -19 5 -12 2 6 2 18 0 25 -3 6 -5 1 -5 -13z"/>
<path d="M1281 2364 c0 -11 3 -14 6 -6 3 7 2 16 -1 19 -3 4 -6 -2 -5 -13z"/>
<path d="M1211 2354 c0 -11 3 -14 6 -6 3 7 2 16 -1 19 -3 4 -6 -2 -5 -13z"/>
<path d="M1300 2344 c0 -8 5 -12 10 -9 6 4 8 11 5 16 -9 14 -15 11 -15 -7z"/>
<path d="M1231 2334 c0 -11 3 -14 6 -6 3 7 2 16 -1 19 -3 4 -6 -2 -5 -13z"/>
<path d="M1251 2324 c0 -11 3 -14 6 -6 3 7 2 16 -1 19 -3 4 -6 -2 -5 -13z"/>
<path d="M1320 2318 c0 -7 -3 -24 -7 -38 -9 -36 6 -19 17 19 5 19 5 31 -1 31
-5 0 -9 -6 -9 -12z"/>
<path d="M1345 2311 c-3 -6 -4 -11 0 -11 3 0 1 -9 -5 -20 -6 -11 -7 -20 -1
-20 5 0 12 12 15 26 7 28 2 42 -9 25z"/>
<path d="M1297 2303 c-4 -3 -7 -11 -7 -17 0 -6 5 -5 12 2 6 6 9 14 7 17 -3 3
-9 2 -12 -2z"/>
<path d="M1221 2274 c0 -11 3 -14 6 -6 3 7 2 16 -1 19 -3 4 -6 -2 -5 -13z"/>
<path d="M1237 2261 c-4 -17 -3 -21 5 -13 5 5 8 16 6 23 -3 8 -7 3 -11 -10z"/>
<path d="M1261 2254 c0 -11 3 -14 6 -6 3 7 2 16 -1 19 -3 4 -6 -2 -5 -13z"/>
<path d="M1280 2243 c0 -15 2 -16 10 -3 7 11 10 11 10 2 0 -7 5 -10 11 -6 8 4
7 9 -2 15 -21 13 -29 11 -29 -8z"/>
<path d="M1355 2250 c-3 -5 -1 -10 4 -10 6 0 11 5 11 10 0 6 -2 10 -4 10 -3 0
-8 -4 -11 -10z"/>
<path d="M1325 2223 c-4 -13 -11 -21 -15 -18 -5 3 -12 0 -16 -6 -4 -8 -3 -9 4
-5 7 4 12 3 12 -2 0 -5 6 -9 13 -9 6 0 21 -4 32 -9 17 -7 18 -6 5 8 -8 9 -18
14 -22 11 -5 -2 -8 3 -8 11 0 10 6 13 15 10 8 -4 15 -1 15 6 0 6 -4 9 -9 6 -5
-4 -12 0 -14 6 -4 8 -8 4 -12 -9z"/>
<path d="M1286 2163 c-3 -4 -6 -11 -6 -17 0 -6 5 -4 10 4 5 8 10 10 10 5 0 -6
14 -11 30 -11 28 -2 45 12 18 14 -7 0 -23 3 -35 5 -11 3 -24 3 -27 0z"/>
<path d="M1378 2142 c7 -5 10 -15 7 -23 -4 -10 2 -15 17 -16 16 -2 19 0 9 6
-7 5 -11 13 -7 19 3 5 -1 13 -10 16 -22 9 -31 7 -16 -2z"/>
<path d="M1370 2079 c0 -6 5 -7 12 -3 8 5 9 2 5 -9 -3 -10 -3 -17 2 -17 5 0
11 8 13 18 4 12 -1 18 -13 19 -11 1 -19 -3 -19 -8z"/>
<path d="M1191 2064 c0 -11 3 -14 6 -6 3 7 2 16 -1 19 -3 4 -6 -2 -5 -13z"/>
<path d="M1446 1985 c-3 -8 -1 -15 4 -15 6 0 10 7 10 15 0 8 -2 15 -4 15 -2 0
-6 -7 -10 -15z"/>
<path d="M1471 1973 c-10 -26 -10 -27 4 -9 8 11 15 23 15 28 0 15 -7 8 -19
-19z"/>
<path d="M1506 1954 c-10 -25 -7 -29 7 -9 10 12 16 14 21 7 4 -7 2 -12 -3 -12
-6 0 -11 -5 -11 -11 0 -8 5 -8 15 1 12 10 13 16 4 26 -15 18 -25 18 -33 -2z"/>
<path d="M1557 1439 c7 -9 11 -18 8 -21 -3 -3 0 -10 8 -16 10 -9 13 -6 13 13
0 13 -2 22 -5 20 -2 -3 -11 1 -20 8 -14 10 -14 10 -4 -4z"/>
<path d="M2126 3735 c-9 -24 4 -45 29 -45 13 0 25 7 29 15 9 24 -4 45 -29 45
-13 0 -25 -7 -29 -15z"/>
<path d="M3087 3654 c-13 -13 -7 -52 9 -58 22 -9 46 13 42 38 -3 21 -37 34
-51 20z"/>
<path d="M1902 3639 c2 -6 8 -10 13 -10 5 0 11 4 13 10 2 6 -4 11 -13 11 -9 0
-15 -5 -13 -11z"/>
<path d="M3317 3504 c-8 -8 1 -24 14 -24 5 0 9 7 9 15 0 15 -12 20 -23 9z"/>
<path d="M3340 1500 c-8 -5 -10 -10 -5 -10 6 0 17 5 25 10 8 5 11 10 5 10 -5
0 -17 -5 -25 -10z"/>
<path d="M3275 1470 c3 -5 10 -10 16 -10 5 0 9 5 9 10 0 6 -7 10 -16 10 -8 0
-12 -4 -9 -10z"/>
<path d="M3350 1406 c0 -2 8 -10 18 -17 15 -13 16 -12 3 4 -13 16 -21 21 -21
13z"/>
<path d="M3307 1369 c-21 -11 -43 -17 -49 -13 -7 5 -8 3 -3 -6 6 -10 4 -12 -8
-7 -25 9 -21 2 11 -19 23 -15 25 -15 13 -1 -16 20 -2 23 19 5 11 -10 11 -9 0
6 -14 18 -13 19 3 13 12 -5 16 -3 11 5 -5 8 -2 9 10 5 11 -5 15 -3 10 5 -5 8
-2 9 9 5 9 -3 19 -2 22 3 11 18 -11 17 -48 -1z"/>
<path d="M3130 1334 c-43 -16 -78 -22 -105 -19 -28 3 -32 2 -15 -3 21 -7 17
-9 -30 -20 -30 -6 -66 -10 -80 -7 -21 5 -22 4 -5 -4 18 -8 17 -9 -10 -16 -45
-10 -52 -13 -33 -14 10 -1 61 10 115 24 53 14 106 23 117 19 17 -4 18 -3 6 6
-12 9 -9 10 15 6 22 -5 26 -4 15 4 -13 9 -13 10 0 10 8 0 33 9 55 19 54 26 34
23 -45 -5z"/>
<path d="M3276 1288 c3 -5 10 -6 15 -3 13 9 11 12 -6 12 -8 0 -12 -4 -9 -9z"/>
<path d="M2940 1256 c-45 -13 -45 -13 -15 -19 17 -4 50 -1 74 6 40 12 42 14
20 20 -28 8 -22 8 -79 -7z"/>
<path d="M3088 1253 c7 -3 16 -2 19 1 4 3 -2 6 -13 5 -11 0 -14 -3 -6 -6z"/>
<path d="M3099 1171 c11 -7 9 -10 -8 -16 -13 -4 -20 -9 -18 -11 2 -3 16 1 31
7 19 9 23 15 14 21 -7 4 -17 8 -23 8 -5 0 -4 -4 4 -9z"/>
<path d="M3705 2590 c-8 -27 1 -40 30 -40 27 0 41 26 24 46 -17 20 -47 17 -54
-6z"/>
<path d="M2797 1386 c-7 -18 18 -42 28 -26 3 5 -1 10 -9 10 -10 0 -13 6 -10
15 4 8 4 15 1 15 -3 0 -7 -6 -10 -14z"/>
<path d="M2770 1350 c-12 -8 -12 -10 3 -16 10 -3 21 -4 24 0 4 3 1 6 -6 6 -7
0 -9 5 -6 10 8 12 4 12 -15 0z"/>
<path d="M2500 1260 c8 -5 24 -10 34 -10 26 0 18 6 -19 14 -22 5 -26 4 -15 -4z"/>
<path d="M2418 1243 c7 -3 16 -2 19 1 4 3 -2 6 -13 5 -11 0 -14 -3 -6 -6z"/>
<path d="M1466 1459 c37 -38 58 -53 35 -26 -6 8 -9 16 -6 19 7 7 -33 42 -52
44 -9 2 0 -13 23 -37z m9 11 c10 -11 16 -20 13 -20 -3 0 -13 9 -23 20 -10 11
-16 20 -13 20 3 0 13 -9 23 -20z"/>
<path d="M3100 1220 c-8 -5 -10 -10 -5 -10 6 0 17 5 25 10 8 5 11 10 5 10 -5
0 -17 -5 -25 -10z"/>
<path d="M2708 1183 c7 -3 16 -2 19 1 4 3 -2 6 -13 5 -11 0 -14 -3 -6 -6z"/>
</g>
</svg>
